<svg width="157" height="53" viewBox="0 0 157 53" fill="none" xmlns="http://www.w3.org/2000/svg">
<rect width="156.062" height="52.7055" rx="26.3527" fill="white"/>
<path d="M64.2239 38.6536L62.8271 34.8184H57.131L55.7705 38.6536H53.8657L58.9813 24.9207H61.0312L66.1468 38.6536H64.2239ZM59.9609 26.8963L57.7659 33.0558H62.1922L59.9609 26.8963ZM69.3826 42.3338H67.6956V29.3369H69.3464V30.7896C69.6003 30.2989 69.9813 29.8986 70.4892 29.5887C70.9971 29.2788 71.5897 29.1238 72.267 29.1238C73.5247 29.1238 74.5043 29.5822 75.2057 30.4991C75.9192 31.4159 76.276 32.578 76.276 33.9855C76.276 35.406 75.9071 36.581 75.1694 37.5108C74.4438 38.4405 73.4582 38.9054 72.2125 38.9054C71.5716 38.9054 71.0032 38.7633 70.5073 38.4792C70.0115 38.1952 69.6366 37.8336 69.3826 37.3946V42.3338ZM74.5345 33.9855C74.5345 33.0429 74.2987 32.2681 73.827 31.6612C73.3675 31.0414 72.7447 30.7315 71.9586 30.7315C71.1846 30.7315 70.5557 31.0414 70.072 31.6612C69.6003 32.2681 69.3645 33.0429 69.3645 33.9855C69.3645 34.954 69.6003 35.7482 70.072 36.368C70.5557 36.9749 71.1846 37.2783 71.9586 37.2783C72.7326 37.2783 73.3554 36.9749 73.827 36.368C74.2987 35.7482 74.5345 34.954 74.5345 33.9855ZM80.1358 42.3338H78.4488V29.3369H80.0995V30.7896C80.3535 30.2989 80.7345 29.8986 81.2424 29.5887C81.7503 29.2788 82.3429 29.1238 83.0201 29.1238C84.2779 29.1238 85.2575 29.5822 85.9589 30.4991C86.6724 31.4159 87.0292 32.578 87.0292 33.9855C87.0292 35.406 86.6603 36.581 85.9226 37.5108C85.197 38.4405 84.2114 38.9054 82.9657 38.9054C82.3248 38.9054 81.7564 38.7633 81.2605 38.4792C80.7647 38.1952 80.3898 37.8336 80.1358 37.3946V42.3338ZM85.2877 33.9855C85.2877 33.0429 85.0519 32.2681 84.5802 31.6612C84.1207 31.0414 83.4978 30.7315 82.7118 30.7315C81.9378 30.7315 81.3089 31.0414 80.8252 31.6612C80.3535 32.2681 80.1177 33.0429 80.1177 33.9855C80.1177 34.954 80.3535 35.7482 80.8252 36.368C81.3089 36.9749 81.9378 37.2783 82.7118 37.2783C83.4857 37.2783 84.1086 36.9749 84.5802 36.368C85.0519 35.7482 85.2877 34.954 85.2877 33.9855ZM102.118 28.0391L100.522 28.6396C100.437 28.0456 100.165 27.5097 99.7056 27.0319C99.246 26.5412 98.6111 26.2959 97.8008 26.2959C97.0873 26.2959 96.4947 26.5154 96.0231 26.9545C95.551 27.3935 95.3152 27.9358 95.3152 28.5815C95.3152 29.0851 95.4542 29.5112 95.7324 29.8599C96.0231 30.2085 96.4343 30.4474 96.9664 30.5765L98.8893 31.022C99.9535 31.2674 100.776 31.7322 101.356 32.4166C101.937 33.0881 102.227 33.9081 102.227 34.8765C102.227 35.987 101.816 36.9426 100.994 37.7432C100.171 38.5438 99.1009 38.9441 97.7827 38.9441C96.3436 38.9441 95.2124 38.5438 94.39 37.7432C93.5797 36.9297 93.1081 35.9677 92.9751 34.8572L94.6803 34.2761C94.7528 35.1025 95.0552 35.7998 95.5873 36.368C96.1198 36.9361 96.8454 37.2202 97.7645 37.2202C98.6111 37.2202 99.2641 37.0136 99.7237 36.6004C100.183 36.1872 100.413 35.6642 100.413 35.0315C100.413 34.515 100.25 34.0695 99.9233 33.695C99.5967 33.3076 99.119 33.0429 98.4902 32.9009L96.658 32.4747C95.7022 32.2552 94.9403 31.8226 94.3719 31.177C93.8035 30.5313 93.5193 29.7114 93.5193 28.7171C93.5193 27.6324 93.9305 26.6833 94.7528 25.8698C95.5873 25.0433 96.5915 24.6301 97.7645 24.6301C99.0827 24.6301 100.093 24.9723 100.794 25.6567C101.495 26.3411 101.937 27.1352 102.118 28.0391ZM106.599 26.3927V29.3369H108.486V30.9833H106.599V35.8256C106.599 36.2647 106.69 36.5875 106.871 36.7941C107.065 37.0007 107.379 37.104 107.814 37.104C108.068 37.104 108.292 37.0782 108.486 37.0265V38.5761C108.195 38.6923 107.808 38.7504 107.325 38.7504C106.575 38.7504 105.982 38.518 105.547 38.0531C105.111 37.5883 104.894 36.9362 104.894 36.0968V30.9833H103.225V29.3369H103.696C104.144 29.3369 104.476 29.2078 104.694 28.9495C104.924 28.6783 105.039 28.3297 105.039 27.9036V26.3927H106.599ZM112.469 36.4455C113.001 37.0265 113.648 37.3171 114.41 37.3171C115.172 37.3171 115.812 37.0265 116.333 36.4455C116.865 35.8515 117.131 35.0315 117.131 33.9855C117.131 32.9525 116.865 32.1455 116.333 31.5644C115.812 30.9704 115.172 30.6734 114.41 30.6734C113.648 30.6734 113.001 30.9704 112.469 31.5644C111.949 32.1455 111.689 32.9525 111.689 33.9855C111.689 35.0315 111.949 35.8515 112.469 36.4455ZM111.199 30.4603C112.045 29.5177 113.116 29.0463 114.41 29.0463C115.704 29.0463 116.768 29.5177 117.602 30.4603C118.449 31.39 118.872 32.5651 118.872 33.9855C118.872 35.4189 118.455 36.6069 117.62 37.5495C116.786 38.4792 115.716 38.9441 114.41 38.9441C113.104 38.9441 112.033 38.4792 111.199 37.5495C110.364 36.6069 109.947 35.4189 109.947 33.9855C109.947 32.5651 110.364 31.39 111.199 30.4603ZM125.898 29.24V31.177C125.644 31.1382 125.396 31.1189 125.154 31.1189C123.558 31.1189 122.759 32.0744 122.759 33.9855V38.6536H121.054V29.3369H122.723V30.9639C123.255 29.7759 124.126 29.1819 125.335 29.1819C125.529 29.1819 125.716 29.2013 125.898 29.24ZM128.733 33.0364H133.504C133.479 32.3391 133.262 31.771 132.851 31.3319C132.439 30.88 131.859 30.654 131.109 30.654C130.432 30.654 129.876 30.8929 129.44 31.3707C129.005 31.8355 128.769 32.3908 128.733 33.0364ZM133.758 35.4576L135.227 36C134.973 36.8651 134.501 37.5753 133.812 38.1306C133.123 38.6729 132.288 38.9441 131.309 38.9441C130.087 38.9441 129.047 38.4986 128.189 37.6076C127.342 36.7037 126.919 35.4899 126.919 33.9662C126.919 32.5458 127.33 31.3707 128.152 30.4409C128.975 29.5112 129.954 29.0463 131.091 29.0463C132.409 29.0463 133.437 29.4918 134.175 30.3828C134.913 31.2609 135.281 32.4424 135.281 33.9274C135.281 34.1599 135.269 34.3536 135.245 34.5085H128.678C128.69 35.3349 128.944 36.0129 129.44 36.5423C129.948 37.0717 130.571 37.3364 131.309 37.3364C132.554 37.3364 133.371 36.7102 133.758 35.4576Z" fill="#0F0F0F"/>
<path opacity="0.6" d="M55.1978 16.4937V13.1511H55.9649C56.7665 13.1511 57.4299 13.6898 57.4299 14.8261C57.4299 15.9624 56.7596 16.4937 55.958 16.4937H55.1978ZM55.9925 17.4382C57.3885 17.4382 58.4182 16.479 58.4182 14.8261C58.4182 13.1733 57.3954 12.2066 55.9994 12.2066H54.2441V17.4382H55.9925ZM60.8067 14.8187C60.8067 13.6381 61.5807 13.0773 62.334 13.0773C63.0941 13.0773 63.8681 13.6381 63.8681 14.8187C63.8681 15.9993 63.0941 16.5601 62.334 16.5601C61.5807 16.5601 60.8067 15.9993 60.8067 14.8187ZM59.8185 14.8261C59.8185 16.5085 61.0071 17.5489 62.334 17.5489C63.6677 17.5489 64.8563 16.5085 64.8563 14.8261C64.8563 13.1364 63.6677 12.0959 62.334 12.0959C61.0071 12.0959 59.8185 13.1364 59.8185 14.8261ZM70.9805 15.8223L69.8886 12.2066H68.9004L67.8155 15.8075L66.9171 12.2066H65.9081L67.2695 17.4382H68.2647L69.3842 13.7119L70.5037 17.4382H71.485L72.8395 12.2066H71.8651L70.9805 15.8223ZM78.5292 17.4382V12.2066H77.5756V15.6673L75.537 12.2066H74.3483V17.4382H75.302V13.7267L77.5272 17.4382H78.5292ZM83.6473 17.4382V16.4642H81.4636V12.2066H80.5099V17.4382H83.6473ZM85.7767 14.8187C85.7767 13.6381 86.5507 13.0773 87.3039 13.0773C88.0641 13.0773 88.8381 13.6381 88.8381 14.8187C88.8381 15.9993 88.0641 16.5601 87.3039 16.5601C86.5507 16.5601 85.7767 15.9993 85.7767 14.8187ZM84.7885 14.8261C84.7885 16.5085 85.9771 17.5489 87.3039 17.5489C88.6377 17.5489 89.8263 16.5085 89.8263 14.8261C89.8263 13.1364 88.6377 12.0959 87.3039 12.0959C85.9771 12.0959 84.7885 13.1364 84.7885 14.8261ZM94.6047 17.4382H95.6413L93.7755 12.2066H92.6697L90.7901 17.4382H91.799L92.2067 16.2428H94.197L94.6047 17.4382ZM93.2019 13.3356L93.8791 15.3131H92.5246L93.2019 13.3356ZM98.0851 16.4937V13.1511H98.8522C99.6538 13.1511 100.317 13.6898 100.317 14.8261C100.317 15.9624 99.6469 16.4937 98.8452 16.4937H98.0851ZM98.8798 17.4382C100.276 17.4382 101.305 16.479 101.305 14.8261C101.305 13.1733 100.283 12.2066 98.8867 12.2066H97.1314V17.4382H98.8798ZM106.266 14.8187C106.266 13.6381 107.04 13.0773 107.793 13.0773C108.553 13.0773 109.327 13.6381 109.327 14.8187C109.327 15.9993 108.553 16.5601 107.793 16.5601C107.04 16.5601 106.266 15.9993 106.266 14.8187ZM105.277 14.8261C105.277 16.5085 106.466 17.5489 107.793 17.5489C109.127 17.5489 110.315 16.5085 110.315 14.8261C110.315 13.1364 109.127 12.0959 107.793 12.0959C106.466 12.0959 105.277 13.1364 105.277 14.8261ZM116.187 17.4382V12.2066H115.233V15.6673L113.194 12.2066H112.006V17.4382H112.959V13.7267L115.185 17.4382H116.187ZM124.346 13.1733V12.2066H120.29V13.1733H121.838V17.4382H122.798V13.1733H124.346ZM129.931 17.4382V12.2066H128.97V14.3096H126.835V12.2066H125.881V17.4382H126.835V15.2688H128.97V17.4382H129.931ZM134.983 17.4382V16.479H132.868V15.2688H134.782V14.3612H132.868V13.1659H134.983V12.2066H131.914V17.4382H134.983Z" fill="#0F0F0F"/>
<path d="M42.3458 33.1338C41.7849 34.4602 41.5171 35.0523 40.7947 36.2242C39.7884 37.8608 38.3684 39.8992 36.6089 39.9165C35.046 39.9321 34.6443 38.8304 32.5225 38.8437C30.4007 38.857 29.9586 39.9361 28.3955 39.9205C26.636 39.9038 25.2917 38.0631 24.2842 36.4254C21.4682 31.8482 21.174 26.4773 22.9108 23.622C24.145 21.5916 26.0929 20.4053 27.9237 20.4053C29.7879 20.4053 30.9601 21.4966 32.502 21.4966C33.9975 21.4966 34.9083 20.4036 37.064 20.4036C38.6935 20.4036 40.42 21.3507 41.6504 22.9873C37.6191 25.3456 38.2745 31.4902 42.3458 33.1338Z" fill="#0F0F0F"/>
<path d="M35.6558 17.5391C36.4391 16.4657 37.033 14.9513 36.8171 13.4023C35.5376 13.4958 34.042 14.3651 33.1685 15.4978C32.3754 16.5257 31.7205 18.0504 31.9753 19.5325C33.371 19.5792 34.8163 18.6885 35.6558 17.5391Z" fill="#0F0F0F"/>
</svg>
