<svg width="164" height="53" viewBox="0 0 164 53" fill="none" xmlns="http://www.w3.org/2000/svg">
<rect x="0.659668" width="163.34" height="52.7055" rx="26.3527" fill="white"/>
<path d="M61.3677 38.4507H59.9341L59.7708 36.5137C59.4562 37.1207 58.9421 37.6436 58.2283 38.0827C57.5146 38.5217 56.6556 38.7412 55.6515 38.7412C54.5507 38.7412 53.5345 38.4765 52.6029 37.9471C51.6714 37.4047 50.9032 36.5783 50.2984 35.4678C49.7056 34.3573 49.4092 33.0595 49.4092 31.5746C49.4092 30.0896 49.7237 28.7918 50.3528 27.6813C50.9819 26.5708 51.7682 25.7508 52.7118 25.2214C53.6675 24.692 54.6898 24.4272 55.7786 24.4272C57.1577 24.4272 58.3554 24.8082 59.3715 25.57C60.3998 26.319 61.1015 27.3197 61.4765 28.5723L59.8615 29.3083C59.5712 28.314 59.0631 27.5457 58.3372 27.0034C57.6234 26.4481 56.7706 26.1705 55.7786 26.1705C54.5325 26.1705 53.4619 26.6418 52.5667 27.5845C51.6714 28.5271 51.2238 29.8571 51.2238 31.5746C51.2238 33.3049 51.6593 34.6478 52.5304 35.6034C53.4135 36.546 54.472 37.0174 55.706 37.0174C56.3834 37.0174 56.9823 36.9011 57.5025 36.6687C58.0348 36.4363 58.4461 36.1328 58.7364 35.7583C59.0389 35.371 59.2627 34.9836 59.4078 34.5962C59.5651 34.2088 59.6558 33.8214 59.68 33.434H55.216V31.7295H61.3677V38.4507ZM65.7164 36.2426C66.2487 36.8237 66.8959 37.1142 67.6581 37.1142C68.4202 37.1142 69.0614 36.8237 69.5816 36.2426C70.1139 35.6486 70.38 34.8286 70.38 33.7827C70.38 32.7496 70.1139 31.9426 69.5816 31.3615C69.0614 30.7675 68.4202 30.4705 67.6581 30.4705C66.8959 30.4705 66.2487 30.7675 65.7164 31.3615C65.1962 31.9426 64.9361 32.7496 64.9361 33.7827C64.9361 34.8286 65.1962 35.6486 65.7164 36.2426ZM64.4461 30.2574C65.293 29.3148 66.3636 28.8435 67.6581 28.8435C68.9525 28.8435 70.0171 29.3148 70.8518 30.2574C71.6987 31.1872 72.1221 32.3622 72.1221 33.7827C72.1221 35.216 71.7047 36.404 70.87 37.3466C70.0352 38.2764 68.9646 38.7412 67.6581 38.7412C66.3515 38.7412 65.2809 38.2764 64.4461 37.3466C63.6114 36.404 63.194 35.216 63.194 33.7827C63.194 32.3622 63.6114 31.1872 64.4461 30.2574ZM76.101 36.2426C76.6333 36.8237 77.2805 37.1142 78.0426 37.1142C78.8048 37.1142 79.446 36.8237 79.9662 36.2426C80.4984 35.6486 80.7646 34.8286 80.7646 33.7827C80.7646 32.7496 80.4984 31.9426 79.9662 31.3615C79.446 30.7675 78.8048 30.4705 78.0426 30.4705C77.2805 30.4705 76.6333 30.7675 76.101 31.3615C75.5808 31.9426 75.3207 32.7496 75.3207 33.7827C75.3207 34.8286 75.5808 35.6486 76.101 36.2426ZM74.8307 30.2574C75.6776 29.3148 76.7482 28.8435 78.0426 28.8435C79.3371 28.8435 80.4017 29.3148 81.2364 30.2574C82.0832 31.1872 82.5066 32.3622 82.5066 33.7827C82.5066 35.216 82.0893 36.404 81.2545 37.3466C80.4198 38.2764 79.3492 38.7412 78.0426 38.7412C76.7361 38.7412 75.6655 38.2764 74.8307 37.3466C73.996 36.404 73.5786 35.216 73.5786 33.7827C73.5786 32.3622 73.996 31.1872 74.8307 30.2574ZM84.0539 38.9543L85.7052 38.5475C85.7657 39.2061 86.0137 39.7484 86.4493 40.1746C86.8848 40.6136 87.4292 40.8331 88.0824 40.8331C89.8608 40.8331 90.7499 39.8259 90.7499 37.8115V36.475C90.5322 36.927 90.1874 37.295 89.7156 37.5791C89.2559 37.8631 88.7115 38.0052 88.0824 38.0052C86.9211 38.0052 85.9593 37.5855 85.1972 36.7462C84.4471 35.8939 84.0721 34.8092 84.0721 33.4921C84.0721 32.2137 84.4471 31.142 85.1972 30.2768C85.9472 29.3987 86.909 28.9597 88.0824 28.9597C89.4132 28.9597 90.3084 29.4504 90.7681 30.4318V29.134H92.4559V37.7534C92.4559 38.3732 92.3772 38.9478 92.22 39.4773C92.0748 40.0196 91.8389 40.5168 91.5121 40.9687C91.1855 41.4207 90.7258 41.7758 90.133 42.034C89.5523 42.2923 88.8688 42.4214 88.0824 42.4214C87.0057 42.4214 86.0924 42.0921 85.3423 41.4336C84.5923 40.7879 84.1628 39.9615 84.0539 38.9543ZM88.3365 36.475C89.0744 36.475 89.6733 36.2038 90.133 35.6615C90.5927 35.1062 90.8225 34.3831 90.8225 33.4921C90.8225 32.6011 90.5927 31.8845 90.133 31.3421C89.6733 30.7869 89.0744 30.5092 88.3365 30.5092C87.5864 30.5092 86.9755 30.7804 86.5037 31.3228C86.044 31.8651 85.8141 32.5882 85.8141 33.4921C85.8141 34.4089 86.0379 35.1385 86.4855 35.6809C86.9453 36.2103 87.5622 36.475 88.3365 36.475ZM96.8853 38.4507H95.1796V24.4272H96.8853V38.4507ZM100.894 32.8336H105.666C105.642 32.1363 105.425 31.5681 105.013 31.1291C104.602 30.6771 104.021 30.4511 103.271 30.4511C102.594 30.4511 102.037 30.69 101.602 31.1678C101.166 31.6327 100.93 32.1879 100.894 32.8336ZM105.921 35.2547L107.39 35.7971C107.136 36.6622 106.665 37.3725 105.975 37.9277C105.285 38.4701 104.451 38.7412 103.471 38.7412C102.249 38.7412 101.208 38.2957 100.35 37.4047C99.5027 36.5008 99.0793 35.287 99.0793 33.7633C99.0793 32.3429 99.4906 31.1678 100.313 30.2381C101.136 29.3083 102.116 28.8435 103.253 28.8435C104.572 28.8435 105.6 29.289 106.338 30.18C107.076 31.058 107.445 32.2396 107.445 33.7246C107.445 33.957 107.433 34.1507 107.409 34.3056H100.84C100.852 35.1321 101.106 35.81 101.602 36.3394C102.11 36.8689 102.733 37.1336 103.471 37.1336C104.717 37.1336 105.533 36.5073 105.921 35.2547ZM116.119 31.1291H118.696C119.458 31.1291 120.063 30.9224 120.51 30.5092C120.958 30.0831 121.182 29.5149 121.182 28.8047C121.182 28.0816 120.958 27.507 120.51 27.0809C120.063 26.6418 119.458 26.4223 118.696 26.4223H116.119V31.1291ZM119.022 32.8336H116.119V38.4507H114.34V24.7178H119.022C120.196 24.7178 121.151 25.1052 121.889 25.88C122.627 26.6547 122.996 27.6232 122.996 28.7854C122.996 29.9604 122.627 30.9289 121.889 31.6908C121.151 32.4526 120.196 32.8336 119.022 32.8336ZM126.515 38.4507H124.809V24.4272H126.515V38.4507ZM128.872 35.952C128.872 35.1514 129.114 34.5122 129.598 34.0345C130.082 33.5438 130.723 33.2403 131.522 33.1241L133.881 32.7561C134.328 32.6915 134.552 32.4591 134.552 32.0588C134.552 31.5681 134.395 31.1678 134.08 30.8579C133.766 30.548 133.294 30.393 132.665 30.393C132.084 30.393 131.624 30.5673 131.286 30.916C130.947 31.2517 130.747 31.7037 130.687 32.2718L129.054 31.8651C129.138 30.9741 129.519 30.251 130.197 29.6957C130.874 29.1276 131.685 28.8435 132.629 28.8435C133.863 28.8435 134.776 29.1663 135.369 29.8119C135.961 30.4447 136.258 31.2582 136.258 32.2525V36.9205C136.258 37.4758 136.294 37.9858 136.367 38.4507H134.697C134.637 38.0633 134.606 37.6436 134.606 37.1917C134.365 37.6049 134.008 37.9665 133.536 38.2764C133.076 38.5863 132.495 38.7412 131.794 38.7412C130.935 38.7412 130.233 38.4701 129.689 37.9277C129.144 37.3725 128.872 36.7139 128.872 35.952ZM132.03 37.211C132.792 37.211 133.403 36.9915 133.862 36.5525C134.322 36.1134 134.552 35.4161 134.552 34.4606V34.0345L131.885 34.4606C131.497 34.5252 131.189 34.6737 130.959 34.9061C130.729 35.1385 130.614 35.4549 130.614 35.8552C130.614 36.2168 130.741 36.5331 130.995 36.8043C131.262 37.0755 131.606 37.211 132.03 37.211ZM140.916 42.3439H139.047L141.225 37.4241L137.468 29.134H139.428L142.15 35.5646L144.763 29.134H146.596L140.916 42.3439Z" fill="#0F0F0F"/>
<path opacity="0.6" d="M54.454 17.2366V14.5138H52.0068V15.3992H53.5553C53.5 15.7682 53.1475 16.4175 52.2419 16.4175C51.4192 16.4175 50.6934 15.8051 50.6934 14.6244C50.6934 13.3848 51.4953 12.8462 52.235 12.8462C53.03 12.8462 53.4378 13.3848 53.5623 13.8497L54.4748 13.5029C54.2328 12.6986 53.5208 11.8943 52.235 11.8943C50.9077 11.8943 49.7256 12.9347 49.7256 14.6244C49.7256 16.3142 50.8524 17.3472 52.1728 17.3472C52.9124 17.3472 53.3963 16.993 53.6176 16.6389L53.6798 17.2366H54.454ZM59.7821 17.2366V16.2773H57.6668V15.0672H59.5817V14.1596H57.6668V12.9642H59.7821V12.005H56.7128V17.2366H59.7821ZM65.7221 12.9716V12.005H61.6642V12.9716H63.2127V17.2366H64.1736V12.9716H65.7221ZM71.6617 17.2366V12.005H70.6939V17.2366H71.6617ZM77.6847 12.9716V12.005H73.6268V12.9716H75.1753V17.2366H76.1362V12.9716H77.6847ZM83.3547 14.6171C83.3547 13.4365 84.1289 12.8757 84.8824 12.8757C85.6428 12.8757 86.4171 13.4365 86.4171 14.6171C86.4171 15.7977 85.6428 16.3585 84.8824 16.3585C84.1289 16.3585 83.3547 15.7977 83.3547 14.6171ZM82.3661 14.6244C82.3661 16.3068 83.5551 17.3472 84.8824 17.3472C86.2166 17.3472 87.4056 16.3068 87.4056 14.6244C87.4056 12.9347 86.2166 11.8943 84.8824 11.8943C83.5551 11.8943 82.3661 12.9347 82.3661 14.6244ZM93.7116 17.2366V12.005H92.7576V15.4656L90.718 12.005H89.5289V17.2366H90.4829V13.525L92.7092 17.2366H93.7116Z" fill="#0F0F0F"/>
<path d="M21.8556 38.0728C21.3438 38.4259 20.7291 38.5326 20.1523 38.3872L30.2859 27.5708L33.5701 31.0764L21.8556 38.0728Z" fill="#0F0F0F"/>
<path d="M18.8945 37.5075C18.6119 37.1065 18.4492 36.614 18.4492 36.0931V16.8258C18.4492 16.3049 18.6119 15.8124 18.8945 15.4114L29.245 26.4594L18.8945 37.5075Z" fill="#0F0F0F"/>
<path d="M37.8561 28.5163L34.9044 30.2791L31.3262 26.4597L34.9046 22.6401L37.8566 24.4031C38.5638 24.826 38.986 25.5948 38.986 26.4597C38.986 27.3246 38.5638 28.0933 37.8561 28.5163Z" fill="#0F0F0F"/>
<path d="M30.2857 25.3492L20.1528 14.5334C20.3189 14.4917 20.488 14.4692 20.657 14.4692C21.0749 14.4692 21.4913 14.5961 21.8555 14.8472L33.5701 21.8435L30.2857 25.3492Z" fill="#0F0F0F"/>
</svg>
