<svg width="14" height="15" viewBox="0 0 14 15" fill="none" xmlns="http://www.w3.org/2000/svg">
<g clip-path="url(#clip0_1_2048)">
<path d="M12.0541 6.62913H1.71631M12.0541 8.06876V5.9381C12.0541 4.97058 12.0541 4.48682 11.8664 4.11728C11.7012 3.79221 11.4376 3.52793 11.1134 3.36231C10.7448 3.17401 10.2623 3.17401 9.29739 3.17401H4.47307C3.50811 3.17401 3.02563 3.17401 2.65707 3.36231C2.33287 3.52793 2.06929 3.79221 1.9041 4.11728C1.71631 4.48682 1.71631 4.97058 1.71631 5.9381V10.7753C1.71631 11.7428 1.71631 12.2265 1.9041 12.5961C2.06929 12.9212 2.33287 13.1854 2.65707 13.3511C3.02563 13.5394 3.50811 13.5394 4.47307 13.5394H6.88523M9.18252 2.02231V4.32572M4.58793 2.02231V4.32572M8.32104 11.8118L9.46969 12.9635L12.0541 10.3722" stroke="black" stroke-width="2" stroke-linecap="round" stroke-linejoin="round"/>
</g>
<defs>
<clipPath id="clip0_1_2048">
<rect width="13.7838" height="13.8205" fill="white" transform="translate(-0.00683594 0.870605)"/>
</clipPath>
</defs>
</svg>
