<svg width="20" height="20" viewBox="0 0 20 20" fill="none" xmlns="http://www.w3.org/2000/svg">
<path d="M15.3481 3.83333H14.1043V3.33333C14.1043 2.83333 13.7726 2.5 13.2751 2.5C12.7776 2.5 12.4459 2.83333 12.4459 3.33333V3.83333H9.29503C8.79752 3.83333 8.46584 4.16667 8.46584 4.66667C8.46584 5.16667 8.79752 5.5 9.29503 5.5H12.5289V6C12.5289 6.5 12.8605 6.83333 13.358 6.83333C13.8556 6.83333 14.1872 6.5 14.1872 6V5.5H15.431C16.0114 5.5 16.5919 6 16.5919 6.66667V7.83333H3.32488V6.66667C3.32488 6 3.90531 5.5 4.56866 5.5H5.81244V6C5.81244 6.5 6.14412 6.83333 6.64163 6.83333C7.13914 6.83333 7.47082 6.5 7.47082 6V4.66667V3.33333C7.47082 2.83333 7.13914 2.5 6.64163 2.5C6.14412 2.5 5.81244 2.83333 5.81244 3.33333V3.83333H4.56866C2.91028 3.83333 1.6665 5.08333 1.6665 6.66667V14.6667C1.6665 16.25 2.91028 17.5 4.56866 17.5H15.431C17.0065 17.5 18.3332 16.25 18.3332 14.6667V6.66667C18.2503 5.08333 17.0065 3.83333 15.3481 3.83333ZM15.3481 15.8333H4.56866C3.90531 15.8333 3.32488 15.3333 3.32488 14.6667V9.5H16.5919V14.6667C16.5919 15.3333 16.0114 15.8333 15.3481 15.8333Z" fill="black"/>
</svg>
