<svg width="14" height="13" viewBox="0 0 14 13" fill="none" xmlns="http://www.w3.org/2000/svg">
<g clip-path="url(#clip0_1_2041)">
<path d="M8.79809 5.31489H8.80385M5.34298 5.31489H5.34874M12.8291 6.84913C12.8291 9.67359 10.2509 11.9633 7.07053 11.9633C3.89019 11.9633 1.31201 9.67359 1.31201 6.84913C1.31201 4.02467 3.89019 1.73499 7.07053 1.73499C10.2509 1.73499 12.8291 4.02467 12.8291 6.84913ZM9.08602 5.31489C9.08602 5.45611 8.95711 5.57059 8.79809 5.57059C8.63907 5.57059 8.51017 5.45611 8.51017 5.31489C8.51017 5.17366 8.63907 5.05918 8.79809 5.05918C8.95711 5.05918 9.08602 5.17366 9.08602 5.31489ZM5.6309 5.31489C5.6309 5.45611 5.50199 5.57059 5.34298 5.57059C5.18396 5.57059 5.05505 5.45611 5.05505 5.31489C5.05505 5.17366 5.18396 5.05918 5.34298 5.05918C5.50199 5.05918 5.6309 5.17366 5.6309 5.31489ZM7.07053 9.66191C8.51045 9.66191 9.66187 8.72449 9.66187 7.87196H4.4792C4.4792 8.72449 5.63062 9.66191 7.07053 9.66191Z" stroke="black" stroke-width="2" stroke-linecap="round" stroke-linejoin="round"/>
</g>
<defs>
<clipPath id="clip0_1_2041">
<rect width="13.8205" height="12.2739" fill="white" transform="translate(0.160156 0.712158)"/>
</clipPath>
</defs>
</svg>
