<svg width="57" height="57" viewBox="0 0 57 57" fill="none" xmlns="http://www.w3.org/2000/svg">
<rect x="4.95215" y="4.73547" width="48" height="48" rx="24" fill="white"/>
<rect x="4.95215" y="4.73547" width="48" height="48" rx="24" stroke="white" stroke-opacity="0.9" stroke-width="8"/>
<path d="M25.9521 28.7355L27.9521 30.7355L32.4521 26.2355M24.2859 20.5542C25.0898 20.49 25.8529 20.1739 26.4666 19.6509C27.8989 18.4303 30.0054 18.4303 31.4377 19.6509C32.0514 20.1739 32.8145 20.49 33.6184 20.5542C35.4942 20.7039 36.9838 22.1934 37.1335 24.0692C37.1976 24.8731 37.5137 25.6362 38.0367 26.2499C39.2573 27.6822 39.2573 29.7887 38.0367 31.221C37.5137 31.8348 37.1976 32.5979 37.1335 33.4017C36.9838 35.2775 35.4942 36.7671 33.6184 36.9168C32.8145 36.9809 32.0514 37.297 31.4377 37.8201C30.0054 39.0406 27.8989 39.0406 26.4666 37.8201C25.8529 37.297 25.0897 36.9809 24.2859 36.9168C22.4101 36.7671 20.9205 35.2775 20.7708 33.4017C20.7067 32.5979 20.3906 31.8348 19.8676 31.221C18.647 29.7887 18.647 27.6822 19.8676 26.2499C20.3906 25.6362 20.7067 24.8731 20.7708 24.0692C20.9205 22.1934 22.4101 20.7039 24.2859 20.5542Z" stroke="#0F0F0F" stroke-width="2" stroke-linecap="round" stroke-linejoin="round"/>
</svg>
