<svg width="20" height="20" viewBox="0 0 20 20" fill="none" xmlns="http://www.w3.org/2000/svg">
<path d="M11.6665 9.16667H12.4998C13.4203 9.16667 14.1665 9.91286 14.1665 10.8333V13.3333C14.1665 14.0237 14.7261 14.5833 15.4165 14.5833C16.1069 14.5833 16.6665 14.0237 16.6665 13.3333V7.5L14.1665 5" stroke="#0F0F0F" stroke-width="1.75" stroke-linecap="round" stroke-linejoin="round"/>
<path d="M3.3335 16.6667V5.00004C3.3335 4.07957 4.07969 3.33337 5.00016 3.33337H10.0002C10.9206 3.33337 11.6668 4.07957 11.6668 5.00004V16.6667" stroke="#0F0F0F" stroke-width="1.75" stroke-linecap="round" stroke-linejoin="round"/>
<path d="M2.5 16.6667H12.5" stroke="#0F0F0F" stroke-width="1.75" stroke-linecap="round" stroke-linejoin="round"/>
<path d="M15 5.83337V6.66671C15 7.12694 15.3731 7.50004 15.8333 7.50004H16.6667" stroke="#0F0F0F" stroke-width="1.75" stroke-linecap="round" stroke-linejoin="round"/>
<path d="M3.3335 9.16667H11.6668" stroke="#0F0F0F" stroke-width="1.75" stroke-linecap="round" stroke-linejoin="round"/>
</svg>
