<svg width="92" height="24" viewBox="0 0 92 24" fill="none" xmlns="http://www.w3.org/2000/svg">
<path d="M11.8751 4.87455L0.794354 4.93044L5.82114 15.3259L12.7458 6.67509L11.8751 4.87455ZM91.009 13.667C91.0883 13.1205 90.7094 12.6132 90.1629 12.5339L81.2559 11.2428C80.7094 11.1635 80.2021 11.5424 80.1228 12.089C80.0436 12.6355 80.4225 13.1429 80.969 13.2221L88.8863 14.3698L87.7386 22.287C87.6593 22.8336 88.0382 23.3409 88.5848 23.4201C89.1313 23.4994 89.6387 23.1205 89.7179 22.5739L91.009 13.667ZM34.8821 1.72393L35.0053 0.73155L34.8821 1.72393ZM11.7932 7.13398C18.1136 4.50358 26.9924 1.75196 34.7588 2.71631L35.0053 0.73155C26.6973 -0.300033 17.4115 2.62948 11.0247 5.28751L11.7932 7.13398ZM34.7588 2.71631C40.9465 3.48462 44.8967 6.91311 48.9013 10.8425C52.8652 14.7319 56.9269 19.1798 63.195 21.2797L63.8303 19.3832C58.0934 17.4613 54.3814 13.4177 50.302 9.41492C46.2634 5.45212 41.9008 1.58775 35.0053 0.73155L34.7588 2.71631ZM63.195 21.2797C69.553 23.4097 76.4674 21.5889 81.663 19.3543C84.2816 18.2281 86.5133 16.9752 88.0902 16.0044C88.8794 15.5186 89.5067 15.1021 89.9387 14.8055C90.1548 14.6572 90.3222 14.5388 90.4367 14.4566C90.494 14.4155 90.538 14.3835 90.5684 14.3612C90.5835 14.3501 90.5953 14.3415 90.6035 14.3354C90.6077 14.3323 90.6109 14.3299 90.6133 14.3281C90.6145 14.3273 90.6154 14.3265 90.6162 14.326C90.6165 14.3257 90.6169 14.3254 90.6171 14.3253C90.6175 14.325 90.6177 14.3248 90.0194 13.5236C89.421 12.7223 89.4212 12.7222 89.4213 12.7221C89.4213 12.7222 89.4214 12.7221 89.4213 12.7222C89.4211 12.7223 89.4208 12.7225 89.4202 12.723C89.4191 12.7238 89.417 12.7253 89.4141 12.7275C89.4084 12.7317 89.3991 12.7386 89.3865 12.7478C89.3612 12.7663 89.3224 12.7946 89.2705 12.8318C89.1667 12.9063 89.0108 13.0166 88.8069 13.1566C88.399 13.4366 87.7995 13.8347 87.0417 14.3013C85.5243 15.2354 83.3802 16.4386 80.8728 17.5171C75.8162 19.6919 69.4773 21.2751 63.8303 19.3832L63.195 21.2797Z" fill="white"/>
</svg>
