<svg width="16" height="17" viewBox="0 0 16 17" fill="none" xmlns="http://www.w3.org/2000/svg">
<g opacity="0.5">
<path d="M12.1333 2.76668C10.8666 1.63335 9.19997 1.03335 7.46663 1.23335C4.79997 1.43335 2.59997 3.36668 2.1333 5.83335C1.79997 7.43335 2.1333 9.03335 3.1333 10.3667L6.5333 15.1C6.79997 15.5667 7.39997 15.8334 7.99997 15.8334C8.59997 15.8334 9.19997 15.5667 9.5333 15.0333L12.9333 10.3C13.6666 9.30002 14 8.16668 14 6.96668C14 5.36668 13.3333 3.83335 12.1333 2.76668Z" fill="black"/>
<path d="M8.00007 9.23328C9.25191 9.23328 10.2667 8.21846 10.2667 6.96662C10.2667 5.71477 9.25191 4.69995 8.00007 4.69995C6.74822 4.69995 5.7334 5.71477 5.7334 6.96662C5.7334 8.21846 6.74822 9.23328 8.00007 9.23328Z" fill="white"/>
</g>
</svg>
