<svg width="20" height="20" viewBox="0 0 20 20" fill="none" xmlns="http://www.w3.org/2000/svg">
<path fill-rule="evenodd" clip-rule="evenodd" d="M9.21642 0.861348C13.6617 0.490616 17.4064 3.83522 17.5 8.14768L17.5002 8.16578C17.5002 9.67319 17.0281 11.082 16.1911 12.2919L16.1828 12.3037L11.9531 18.1967C11.9447 18.2084 11.936 18.2198 11.927 18.2311C10.9548 19.4473 9.04268 19.5221 8.10846 18.193L3.87738 12.2981C2.77447 10.7344 2.1949 8.76023 2.66359 6.67094C3.24151 3.53814 5.97309 1.23191 9.19099 0.863863C9.19945 0.862894 9.20793 0.862056 9.21642 0.861348ZM9.36769 2.5212C6.79214 2.821 4.72386 4.65449 4.30014 6.98674C4.29797 6.99865 4.29555 7.01052 4.29287 7.02233C3.93973 8.57734 4.35434 10.0813 5.23743 11.3347L9.47099 17.2331C9.69659 17.5556 10.2593 17.6311 10.6137 17.2046L14.8245 11.3379C15.4761 10.3936 15.8317 9.31771 15.8336 8.17482C15.7564 4.8596 12.8752 2.2356 9.36769 2.5212Z" fill="black"/>
<path fill-rule="evenodd" clip-rule="evenodd" d="M10 6.58341C9.12555 6.58341 8.41667 7.2923 8.41667 8.16675C8.41667 9.0412 9.12555 9.75008 10 9.75008C10.8745 9.75008 11.5833 9.0412 11.5833 8.16675C11.5833 7.2923 10.8745 6.58341 10 6.58341ZM6.75 8.16675C6.75 6.37182 8.20507 4.91675 10 4.91675C11.7949 4.91675 13.25 6.37182 13.25 8.16675C13.25 9.96167 11.7949 11.4167 10 11.4167C8.20507 11.4167 6.75 9.96167 6.75 8.16675Z" fill="black"/>
<path fill-rule="evenodd" clip-rule="evenodd" d="M10 6.58341C9.12555 6.58341 8.41667 7.2923 8.41667 8.16675C8.41667 9.0412 9.12555 9.75008 10 9.75008C10.8745 9.75008 11.5833 9.0412 11.5833 8.16675C11.5833 7.2923 10.8745 6.58341 10 6.58341ZM6.75 8.16675C6.75 6.37182 8.20507 4.91675 10 4.91675C11.7949 4.91675 13.25 6.37182 13.25 8.16675C13.25 9.96167 11.7949 11.4167 10 11.4167C8.20507 11.4167 6.75 9.96167 6.75 8.16675Z" fill="black"/>
<path fill-rule="evenodd" clip-rule="evenodd" d="M10 6.58341C9.12555 6.58341 8.41667 7.2923 8.41667 8.16675C8.41667 9.0412 9.12555 9.75008 10 9.75008C10.8745 9.75008 11.5833 9.0412 11.5833 8.16675C11.5833 7.2923 10.8745 6.58341 10 6.58341ZM6.75 8.16675C6.75 6.37182 8.20507 4.91675 10 4.91675C11.7949 4.91675 13.25 6.37182 13.25 8.16675C13.25 9.96167 11.7949 11.4167 10 11.4167C8.20507 11.4167 6.75 9.96167 6.75 8.16675Z" fill="black"/>
</svg>
