<svg width="20" height="20" viewBox="0 0 20 20" fill="none" xmlns="http://www.w3.org/2000/svg">
<g clip-path="url(#clip0_1_755)">
<path d="M9.99984 1.66663V3.74996M9.99984 1.66663C5.39746 1.66663 1.6665 5.39759 1.6665 9.99996M9.99984 1.66663C14.6022 1.66663 18.3332 5.39759 18.3332 9.99996M9.99984 16.25V18.3333M9.99984 18.3333C14.6022 18.3333 18.3332 14.6023 18.3332 9.99996M9.99984 18.3333C5.39746 18.3333 1.6665 14.6023 1.6665 9.99996M3.74984 9.99996H1.6665M18.3332 9.99996H16.2498M15.8985 15.8986L14.4204 14.4205M4.1012 15.8986L5.5808 14.419M4.1012 4.16663L5.54824 5.61367M15.8985 4.16663L11.2498 8.74996M11.6665 9.99996C11.6665 10.9204 10.9203 11.6666 9.99984 11.6666C9.07936 11.6666 8.33317 10.9204 8.33317 9.99996C8.33317 9.07949 9.07936 8.33329 9.99984 8.33329C10.9203 8.33329 11.6665 9.07949 11.6665 9.99996Z" stroke="black" stroke-width="1.5" stroke-linecap="round" stroke-linejoin="round"/>
</g>
<defs>
<clipPath id="clip0_1_755">
<rect width="20" height="20" fill="white"/>
</clipPath>
</defs>
</svg>
