<svg width="21" height="20" viewBox="0 0 21 20" fill="none" xmlns="http://www.w3.org/2000/svg">
<path d="M18.4997 17.5V15.8333C18.4997 14.2801 17.4374 12.9751 15.9997 12.605M13.083 2.7423C14.3046 3.23679 15.1663 4.43443 15.1663 5.83333C15.1663 7.23224 14.3046 8.42988 13.083 8.92437M14.333 17.5C14.333 15.9469 14.333 15.1703 14.0793 14.5577C13.741 13.741 13.092 13.092 12.2753 12.7537C11.6627 12.5 10.8861 12.5 9.33301 12.5H6.83301C5.27987 12.5 4.5033 12.5 3.89073 12.7537C3.07397 13.092 2.42506 13.741 2.08674 14.5577C1.83301 15.1703 1.83301 15.9469 1.83301 17.5M11.4163 5.83333C11.4163 7.67428 9.92396 9.16667 8.08301 9.16667C6.24206 9.16667 4.74967 7.67428 4.74967 5.83333C4.74967 3.99238 6.24206 2.5 8.08301 2.5C9.92396 2.5 11.4163 3.99238 11.4163 5.83333Z" stroke="black" stroke-width="1.5" stroke-linecap="round" stroke-linejoin="round"/>
</svg>
