<svg width="55" height="36" viewBox="0 0 55 36" fill="none" xmlns="http://www.w3.org/2000/svg">
<path d="M39.7412 1.76931C36.3348 0.649949 32.1123 0 27.535 0C22.9577 0 18.7353 0.649949 15.3289 1.76931C6.28079 4.73019 0.0712891 10.8686 0.0712891 17.9458C0.0712891 27.9117 12.3484 36 27.4996 36C42.6508 36 54.9278 27.9117 54.9278 17.9458C54.9988 10.8686 48.7893 4.73019 39.7412 1.76931ZM27.535 28.2728C25.2641 28.2728 23.419 23.7593 23.3126 18.0542C24.6609 18.1625 26.0802 18.2347 27.535 18.2347C28.9898 18.2347 30.3737 18.1625 31.7575 18.0542C31.6511 23.7232 29.8059 28.2728 27.535 28.2728ZM23.5964 13.5767C24.1997 9.56871 25.7254 6.75226 27.535 6.75226C29.3092 6.75226 30.835 9.56871 31.4736 13.5767C30.2317 13.6851 28.8834 13.7573 27.535 13.7573C26.1867 13.7573 24.8738 13.7212 23.5964 13.5767ZM33.8865 13.2879C32.9639 7.00501 30.4801 2.52758 27.535 2.52758C24.59 2.52758 22.1062 7.00501 21.1836 13.2879C15.6128 12.3852 11.7097 10.3992 11.7097 8.05215C11.7097 4.87462 18.7708 2.31093 27.4996 2.31093C36.2284 2.31093 43.2894 4.87462 43.2894 8.05215C43.3604 10.3992 39.4573 12.4213 33.8865 13.2879ZM4.11634 17.2959C4.11634 14.2267 5.28727 11.3741 7.27431 8.91875C7.23883 9.0993 7.23883 9.27984 7.23883 9.42427C7.23883 13.2879 12.9161 16.5376 20.8288 17.7292C20.8288 18.0181 20.8288 18.3069 20.8288 18.5958C20.8288 25.7452 22.7803 31.8114 25.477 33.9057C13.4838 33.1836 4.11634 26.0341 4.11634 17.2959ZM29.6285 33.9057C32.3252 31.8114 34.2768 25.7452 34.2768 18.5958C34.2768 18.3069 34.2768 18.0181 34.2768 17.7292C42.1895 16.5376 47.8667 13.2518 47.8667 9.42427C47.8667 9.24373 47.8667 9.06319 47.8313 8.91875C49.8538 11.3741 50.9892 14.2628 50.9892 17.2959C50.9892 26.0341 41.5863 33.1836 29.6285 33.9057Z" fill="#0F0F0F"/>
</svg>
